<?xml version="1.0" encoding="utf-8"?>
<!-- Generator: Adobe Illustrator 23.0.0, SVG Export Plug-In . SVG Version: 6.00 Build 0)  -->
<svg version="1.1" id="_x30_"
	xmlns="http://www.w3.org/2000/svg"
	xmlns:xlink="http://www.w3.org/1999/xlink" x="0px" y="0px" viewBox="0 0 512 512" style="enable-background:new 0 0 512 512;" xml:space="preserve">
	<path d="M64,192l128,128V192H64z M192,192l128,128V192H192z M192,192l128,128V192H192z M192,320V192H64L192,320z M0,0v512h512V0H0z
	 M448,192L320,64v128l128,128L320,448V320L192,448V320L64,448V64l128,128L320,64h128V192z M320,320V192H192L320,320z M64,192
	l128,128V192H64z M64,192l128,128V192H64z M64,192l128,128V192H64z"/>
</svg>
