<?xml version="1.0" standalone="no"?>
<!DOCTYPE svg PUBLIC "-//W3C//DTD SVG 20010904//EN"
 "http://www.w3.org/TR/2001/REC-SVG-20010904/DTD/svg10.dtd">
<svg version="1.0" xmlns="http://www.w3.org/2000/svg"
 width="260.000000pt" height="260.000000pt" viewBox="0 0 260.000000 260.000000"
 preserveAspectRatio="xMidYMid meet">
<metadata>
Created by potrace 1.14, written by Peter Selinger 2001-2017
</metadata>
<g transform="translate(0.000000,260.000000) scale(0.100000,-0.100000)"
fill="#000000" stroke="none">
<path d="M317 2273 c-4 -3 -7 -68 -7 -143 l0 -136 84 -48 c46 -26 87 -54 90
-62 3 -9 6 -283 6 -609 l0 -594 -42 -11 c-24 -6 -63 -17 -88 -24 l-45 -13 3
-119 c2 -65 5 -136 8 -157 l6 -37 723 0 724 0 5 42 c10 74 25 287 32 446 l7
152 -85 0 c-47 0 -98 3 -114 6 -27 5 -38 -5 -150 -134 -97 -111 -129 -140
-154 -146 -18 -3 -97 -6 -176 -6 l-144 0 0 614 0 615 53 15 c28 8 82 23 119
32 l68 18 0 41 c0 22 -3 91 -7 153 l-6 112 -452 0 c-248 0 -455 -3 -458 -7z"/>
</g>
</svg>
